<mxfile host="app.diagrams.net" modified="2023-07-10T19:13:08.375Z" agent="Mozilla/5.0 (Windows NT 10.0; Win64; x64) AppleWebKit/537.36 (KHTML, like Gecko) Chrome/114.0.0.0 Safari/537.36 OPR/100.0.0.0" version="21.2.3" etag="3yAJfA62cWhrkgZhbkyJ" type="github">
  <diagram name="Страница 1" id="lV58UVedpll42roFBC5W">
    <mxGraphModel>
      <root>
        <mxCell id="0" />
        <mxCell id="1" parent="0" />
      </root>
    </mxGraphModel>
  </diagram>
</mxfile>
